PathFileType	4	(X/Y/Z)	 s03c0201.trc
DataRate	CameraRate	NumFrames	NumMarkers	Units	OrigDataRate	OrigDataStartFrame	OrigNumFrames
200	200	5	52	mm	200	1001	2000
Frame#	Time	racr			lacr			c7			jug			rlel			rdr			llel			ldr			s2			lic			ric			lasi			rasi			rpsi			lpsi			rgt			lgt			rth1			rth2			rth3			rth4			rlfc			rmfc			rsh1			rsh2			rsh3			rsh4			rlmal			rmmal			rcal			rtoe			rmt5			rmt1			lth1			lth2			lth4			lth3			llfc			lmfc			lsh1			lsh2			lsh3			lsh4			llmal			lmmal			lcal			ltoe			lmt1			lmt5			SBIKE			LBIKE			RBIKE			
		X1	Y1	Z1	X2	Y2	Z2	X3	Y3	Z3	X4	Y4	Z4	X5	Y5	Z5	X6	Y6	Z6	X7	Y7	Z7	X8	Y8	Z8	X9	Y9	Z9	X10	Y10	Z10	X11	Y11	Z11	X12	Y12	Z12	X13	Y13	Z13	X14	Y14	Z14	X15	Y15	Z15	X16	Y16	Z16	X17	Y17	Z17	X18	Y18	Z18	X19	Y19	Z19	X20	Y20	Z20	X21	Y21	Z21	X22	Y22	Z22	X23	Y23	Z23	X24	Y24	Z24	X25	Y25	Z25	X26	Y26	Z26	X27	Y27	Z27	X28	Y28	Z28	X29	Y29	Z29	X30	Y30	Z30	X31	Y31	Z31	X32	Y32	Z32	X33	Y33	Z33	X34	Y34	Z34	X35	Y35	Z35	X36	Y36	Z36	X37	Y37	Z37	X38	Y38	Z38	X39	Y39	Z39	X40	Y40	Z40	X41	Y41	Z41	X42	Y42	Z42	X43	Y43	Z43	X44	Y44	Z44	X45	Y45	Z45	X46	Y46	Z46	X47	Y47	Z47	X48	Y48	Z48	X49	Y49	Z49	X50	Y50	Z50	X51	Y51	Z51	X52	Y52	Z52	
1001	5.0050	453.686664	1396.741972	-32.388106	484.023673	1439.443728	-341.513296	399.661491	1502.256622	-178.592114	406.303827	1328.877425	-198.258707	510.127845	1163.194888	106.907294	721.780309	992.075089	-9.122158	533.216700	1206.031528	-500.846920	735.522942	984.631692	-447.967579	-109.335618	1210.742664	-252.849743	71.488506	1265.360013	-426.639300	38.360832	1245.109099	-60.124617	87.682426	1188.172902	-392.429676	66.784925	1196.482168	-95.389162	-91.724387	1263.851338	-209.431411	-79.219211	1264.148157	-289.807785	14.764161	1179.731984	-52.354642	7.631402	1120.040484	-448.262173	150.698057	1115.194180	-35.229600	239.605254	1120.281805	-38.069403	317.534497	1083.987581	-38.481498	245.881910	1152.951668	-56.355584	438.746662	1030.437328	-63.436212	447.382990	1009.634627	-194.591686	364.531870	885.689550	-42.721336	337.385853	801.830009	-55.229973	272.391790	742.238948	-54.598649	363.054018	787.283948	-79.782308	195.873154	629.116533	-71.848007	224.236417	633.225702	-158.962336	122.880953	599.730663	-112.485069	414.496590	491.714464	-112.590314	298.042927	517.365354	-44.921611	326.994297	521.952826	-156.566807	86.986803	978.756956	-471.481256	148.366769	918.264849	-480.249355	180.079368	937.073962	-478.758456	174.805858	833.249997	-470.344406	254.549095	729.624865	-454.185350	268.765476	719.827786	-331.902193	193.289665	569.183018	-468.259147	196.504534	485.786968	-448.880645	154.432939	406.912195	-437.324430	231.000798	481.039636	-430.806518	121.053069	287.180815	-413.107164	160.258224	294.463272	-331.471590	54.296516	271.157972	-363.664458	335.752106	144.301275	-353.709752	248.931632	182.742196	-312.281623	216.591497	162.472222	-429.488896	-211.975540	947.142829	-231.606286	-4.587456	83.996990	-433.213832	-8.849654	81.849988	-32.891211	
1002	5.0100	451.959045	1396.386945	-30.874484	485.804945	1439.055010	-338.902279	399.931803	1501.745461	-178.444079	406.799412	1328.319770	-197.538295	508.219093	1162.014655	107.385904	721.471288	991.851256	-8.529122	535.334292	1207.377438	-500.289483	736.025207	984.747948	-447.282648	-109.690540	1211.982643	-253.599437	71.694307	1265.089347	-427.494616	37.304661	1246.594187	-60.923054	87.247527	1187.910113	-393.064143	66.092431	1196.749761	-96.604171	-91.992304	1265.447832	-210.102446	-79.264537	1265.260257	-290.586106	14.052845	1180.845105	-52.948436	7.358351	1120.773315	-448.995793	149.649630	1115.142758	-36.210094	238.578878	1119.518879	-39.018857	316.249027	1082.682859	-39.810556	245.175757	1152.317519	-56.963492	437.198735	1029.143629	-64.724796	445.960178	1009.155077	-196.029597	365.578616	883.124233	-43.577954	340.307645	798.514761	-55.174734	276.114333	737.861185	-54.497852	365.931183	784.246427	-80.073084	201.803560	622.851654	-71.007797	229.889029	627.330601	-158.209806	129.375968	591.295800	-111.309089	424.028050	492.192245	-112.673023	307.119866	514.286976	-44.465789	335.816409	519.789815	-156.297770	89.237280	981.092702	-471.912369	151.458175	921.658254	-480.939599	182.870138	940.861193	-479.058216	179.022554	836.902898	-471.755974	258.863898	733.221433	-455.925232	272.681115	723.188661	-333.444579	195.170704	573.673061	-469.528391	196.511104	490.334410	-449.821682	152.743630	412.456482	-438.327102	230.703744	485.039709	-431.404424	116.699998	293.737924	-413.918706	156.141927	300.253115	-332.230913	49.488932	280.017299	-363.894689	325.864338	143.141264	-353.358926	240.554394	184.554278	-312.061046	207.853516	165.801963	-429.384226	-212.039151	947.145752	-231.706478	-4.568959	84.047032	-433.263136	-8.866530	81.881629	-32.909829	
1003	5.0150	450.312841	1396.084116	-29.509735	487.441027	1438.526029	-336.501688	399.870477	1501.216630	-177.337037	407.093395	1327.807960	-196.375715	506.780318	1161.012424	107.156955	721.308899	991.703617	-7.906581	537.366043	1208.522286	-499.839088	736.462433	984.735778	-446.540806	-110.056613	1213.065461	-254.149699	71.839785	1264.732621	-428.355945	36.212450	1247.967654	-61.722546	86.861018	1187.598135	-393.780430	65.492790	1196.859321	-97.850331	-92.052704	1266.953780	-210.937815	-79.322577	1266.370033	-291.254453	13.384123	1181.610772	-53.003364	7.142104	1121.479758	-449.649438	148.505749	1114.305805	-37.164663	237.457763	1117.942227	-39.974671	314.813444	1080.702046	-40.821544	244.427342	1150.853072	-57.708733	434.740871	1026.985605	-65.100679	444.134178	1006.992140	-197.015915	366.109801	879.155036	-44.046649	342.426954	794.014439	-55.194129	279.335182	732.177819	-54.287772	368.343331	780.059443	-80.101281	207.500289	615.413562	-69.968753	235.069437	620.292377	-157.360753	135.571692	581.632347	-109.928360	433.219232	492.229339	-112.745709	315.914602	510.354607	-43.885797	343.669857	517.262858	-155.981012	91.527426	983.584306	-472.270524	154.762956	925.161239	-481.301641	185.791632	944.817610	-479.088764	183.517805	840.756276	-472.999034	263.568924	737.149086	-457.486590	276.976915	727.357358	-334.880384	197.771419	578.239044	-470.278111	197.197917	495.228204	-450.626440	151.665538	418.273244	-439.203496	230.929866	489.334593	-431.639445	113.077737	300.698213	-414.885994	152.393070	306.458687	-332.696706	45.097880	289.910224	-364.883557	316.123381	142.313822	-353.013919	232.403669	186.995607	-311.912430	199.447363	169.737193	-429.178821	-212.086228	947.122648	-231.806105	-4.583174	84.078709	-433.274908	-8.880239	81.900459	-32.915381	
1004	5.0200	448.746252	1395.702743	-28.323440	489.002553	1437.740887	-334.013447	399.558300	1500.635036	-175.442596	407.175327	1327.301729	-194.929588	505.410125	1160.052346	106.779312	721.263112	991.628344	-7.234718	539.201193	1209.570114	-499.478409	736.796499	984.762102	-445.744999	-110.202549	1214.385085	-254.876781	71.998536	1263.882192	-429.249845	35.091279	1249.336730	-62.508086	86.390846	1187.248626	-394.344455	64.984178	1196.818026	-99.109339	-91.464628	1267.988566	-211.937739	-78.945632	1267.199328	-292.373905	12.513755	1181.976209	-53.551924	6.877307	1121.682305	-450.017221	147.252074	1112.791847	-38.000106	236.186318	1115.629460	-40.652354	313.255981	1077.795345	-41.443178	243.377570	1148.210358	-58.505876	432.589009	1023.082025	-65.467210	441.808238	1003.162887	-197.541121	366.160211	873.651173	-44.587488	344.111619	788.192774	-54.988460	282.114957	725.114501	-53.825416	370.316426	774.537866	-79.768737	212.991971	606.519822	-68.976485	239.933379	612.131139	-156.377393	141.462346	570.755475	-108.404822	441.936624	491.864228	-112.917692	324.313884	505.646213	-43.161082	351.145987	513.994267	-155.342639	93.917660	986.067243	-472.595826	158.363343	928.486360	-480.627077	188.826504	948.842459	-478.991442	188.143047	844.765012	-474.141504	268.679614	741.260830	-458.857137	281.547144	731.509247	-336.018761	200.715328	583.498288	-471.942208	198.523606	501.060610	-452.305886	151.180238	424.319238	-439.870607	231.461118	494.029043	-431.341437	109.866024	308.206441	-415.502789	148.750773	313.298044	-332.837196	41.270185	299.769212	-365.247687	306.386160	141.966781	-351.958207	224.509786	190.060370	-311.844923	191.488473	174.241595	-428.879216	-212.144290	947.099779	-231.911827	-4.565489	84.088736	-433.290685	-8.891738	81.933523	-32.943187	
1005	5.0250	447.229171	1395.370432	-27.351809	490.332265	1437.013058	-331.830623	399.442834	1500.018146	-174.598712	407.354802	1326.696556	-193.994997	504.057550	1159.172610	106.313836	721.267541	991.643345	-6.536610	540.939853	1210.454008	-499.254166	737.097463	984.878929	-445.114561	-110.515929	1215.068315	-255.663241	71.986245	1263.270097	-429.975569	33.904344	1250.547645	-63.223998	86.022050	1186.891017	-394.858814	64.564772	1196.633051	-100.362894	-91.417359	1268.891700	-212.778843	-78.050469	1266.418404	-294.773546	11.523839	1181.968849	-54.191015	6.789189	1122.218971	-450.560505	145.880092	1110.604107	-38.652662	234.836734	1112.554023	-41.107712	311.741387	1073.954975	-41.551613	242.390466	1145.157629	-58.625656	430.202970	1017.930659	-66.111574	439.524929	997.931715	-197.431864	365.794374	866.932973	-44.616128	345.307783	781.038193	-54.529480	284.460717	717.019875	-53.276597	371.393124	767.318595	-80.103099	217.996968	596.673661	-67.698298	244.514868	602.736730	-155.295089	147.264836	558.740133	-106.696461	450.028394	490.910564	-113.160519	332.135578	500.106221	-42.034445	358.243222	509.837474	-154.510213	96.337652	988.519339	-473.122085	161.867775	932.120628	-480.813152	191.880144	952.934559	-478.733698	192.862429	848.781353	-475.028648	274.062175	745.742464	-459.986678	286.397230	735.690219	-337.021667	204.054862	588.631805	-472.746484	199.993278	506.329733	-452.542144	151.031367	430.588244	-440.435894	232.505713	498.775794	-431.039048	107.083525	315.944317	-415.970758	146.037610	319.919412	-332.985147	37.963305	309.942716	-365.707097	295.932055	140.134002	-348.180334	216.900498	193.742089	-311.866073	183.893215	179.208304	-428.578384	-212.215041	947.019421	-232.180955	-4.577212	84.083756	-433.323097	-8.937897	81.983150	-32.982568	
